<svg width="27" height="31" viewBox="0 0 27 31" fill="none" xmlns="http://www.w3.org/2000/svg">
<rect width="27" height="31" fill="#1E1E1E"/>
<path d="M-17 -5.99999C-17 -11.5228 -12.5228 -16 -7 -16H447C452.523 -16 457 -11.5228 457 -6V717C457 722.523 452.523 727 447 727H-6.99999C-12.5228 727 -17 722.523 -17 717V-5.99999Z" fill="black"/>
<path d="M33 62V57H28V52H23V37H28V32H33V27H53V32H58V37H48V32H38V37H33V52H38V57H48V52H58V57H53V62H33ZM63 62V37H68V32H73V27H88V32H93V37H98V62H88V52H73V62H63ZM73 47H88V37H83V32H78V37H73V47ZM108 62V27H118V57H138V62H108ZM153 62V57H148V52H143V37H148V32H153V27H173V32H178V37H168V32H158V37H153V52H158V57H168V52H178V57H173V62H153ZM188 62V57H183V27H193V57H208V27H218V57H213V62H188ZM228 62V27H238V57H258V62H228ZM263 62V37H268V32H273V27H288V32H293V37H298V62H288V52H273V62H263ZM273 47H288V37H283V32H278V37H273V47ZM318 62V32H308V27H338V32H328V62H318ZM348 62V57H343V32H348V27H373V32H378V57H373V62H348ZM353 57H368V32H353V57ZM383 62V27H413V32H418V47H408V52H413V57H418V62H403V57H398V52H393V62H383ZM393 47H403V42H408V32H393V47Z" fill="#FAFAFA"/>
<path d="M0.375 30.625V26.25H-4V21.875H4.75V26.25H17.875V17.5H4.75V13.125H9.125V8.75H13.5V4.375H0.375V0H26.625V4.375H22.25V8.75H17.875V13.125H22.25V17.5H26.625V26.25H22.25V30.625H0.375Z" fill="black"/>
<path d="M4.75 30.625V17.5H9.125V13.125H13.5V8.75H17.875V4.375H4.75V8.75H-4V0H26.625V8.75H22.25V13.125H17.875V17.5H13.5V30.625H4.75Z" fill="black"/>
<path d="M4.75 30.625V17.5H9.125V13.125H13.5V8.75H17.875V4.375H4.75V8.75H-4V0H26.625V8.75H22.25V13.125H17.875V17.5H13.5V30.625H4.75Z" fill="black"/>
<path d="M-4 30.625V21.875H0.375V17.5H4.75V13.125H13.5V8.75H17.875V4.375H4.75V8.75H-4V4.375H0.375V0H22.25V4.375H26.625V13.125H22.25V17.5H17.875V21.875H9.125V26.25H26.625V30.625H-4Z" fill="black"/>
<path d="M0.375 30.625V26.25H9.125V8.75H4.75V4.375H9.125V0H17.875V26.25H26.625V30.625H0.375Z" fill="black"/>
<path d="M0.375 30.625V26.25H9.125V8.75H4.75V4.375H9.125V0H17.875V26.25H26.625V30.625H0.375Z" fill="black"/>
</svg>
