<svg width="31" height="31" viewBox="0 0 31 31" fill="none" xmlns="http://www.w3.org/2000/svg">
<rect width="31" height="31" fill="#1E1E1E"/>
<path d="M-13 -5.99999C-13 -11.5228 -8.52285 -16 -3 -16H451C456.523 -16 461 -11.5228 461 -6V717C461 722.523 456.523 727 451 727H-2.99999C-8.52284 727 -13 722.523 -13 717V-5.99999Z" fill="black"/>
<path d="M37 62V57H32V52H27V37H32V32H37V27H57V32H62V37H52V32H42V37H37V52H42V57H52V52H62V57H57V62H37ZM67 62V37H72V32H77V27H92V32H97V37H102V62H92V52H77V62H67ZM77 47H92V37H87V32H82V37H77V47ZM112 62V27H122V57H142V62H112ZM157 62V57H152V52H147V37H152V32H157V27H177V32H182V37H172V32H162V37H157V52H162V57H172V52H182V57H177V62H157ZM192 62V57H187V27H197V57H212V27H222V57H217V62H192ZM232 62V27H242V57H262V62H232ZM267 62V37H272V32H277V27H292V32H297V37H302V62H292V52H277V62H267ZM277 47H292V37H287V32H282V37H277V47ZM322 62V32H312V27H342V32H332V62H322ZM352 62V57H347V32H352V27H377V32H382V57H377V62H352ZM357 57H372V32H357V57ZM387 62V27H417V32H422V47H412V52H417V57H422V62H407V57H402V52H397V62H387ZM397 47H407V42H412V32H397V47Z" fill="#FAFAFA"/>
<path d="M4.375 30.625V26.25H0V21.875H8.75V26.25H21.875V17.5H8.75V13.125H13.125V8.75H17.5V4.375H4.375V0H30.625V4.375H26.25V8.75H21.875V13.125H26.25V17.5H30.625V26.25H26.25V30.625H4.375Z" fill="black"/>
<path d="M8.75 30.625V17.5H13.125V13.125H17.5V8.75H21.875V4.375H8.75V8.75H0V0H30.625V8.75H26.25V13.125H21.875V17.5H17.5V30.625H8.75Z" fill="black"/>
<path d="M8.75 30.625V17.5H13.125V13.125H17.5V8.75H21.875V4.375H8.75V8.75H0V0H30.625V8.75H26.25V13.125H21.875V17.5H17.5V30.625H8.75Z" fill="black"/>
<path d="M0 30.625V21.875H4.375V17.5H8.75V13.125H17.5V8.75H21.875V4.375H8.75V8.75H0V4.375H4.375V0H26.25V4.375H30.625V13.125H26.25V17.5H21.875V21.875H13.125V26.25H30.625V30.625H0Z" fill="black"/>
<path d="M4.375 30.625V26.25H13.125V8.75H8.75V4.375H13.125V0H21.875V26.25H30.625V30.625H4.375Z" fill="black"/>
<path d="M4.375 30.625V26.25H13.125V8.75H8.75V4.375H13.125V0H21.875V26.25H30.625V30.625H4.375Z" fill="black"/>
</svg>
