<svg width="395" height="35" viewBox="0 0 395 35" fill="none" xmlns="http://www.w3.org/2000/svg">
<rect width="395" height="35" fill="#1E1E1E"/>
<path d="M-40 -33C-40 -38.5228 -35.5228 -43 -30 -43H424C429.523 -43 434 -38.5228 434 -33V690C434 695.523 429.523 700 424 700H-30C-35.5228 700 -40 695.523 -40 690V-33Z" fill="black"/>
<path d="M10 35V30H5V25H0V10H5V5H10V0H30V5H35V10H25V5H15V10H10V25H15V30H25V25H35V30H30V35H10ZM40 35V10H45V5H50V0H65V5H70V10H75V35H65V25H50V35H40ZM50 20H65V10H60V5H55V10H50V20ZM85 35V0H95V30H115V35H85ZM130 35V30H125V25H120V10H125V5H130V0H150V5H155V10H145V5H135V10H130V25H135V30H145V25H155V30H150V35H130ZM165 35V30H160V0H170V30H185V0H195V30H190V35H165ZM205 35V0H215V30H235V35H205ZM240 35V10H245V5H250V0H265V5H270V10H275V35H265V25H250V35H240ZM250 20H265V10H260V5H255V10H250V20ZM295 35V5H285V0H315V5H305V35H295ZM325 35V30H320V5H325V0H350V5H355V30H350V35H325ZM330 30H345V5H330V30ZM360 35V0H390V5H395V20H385V25H390V30H395V35H380V30H375V25H370V35H360ZM370 20H380V15H385V5H370V20Z" fill="#FAFAFA"/>
<path d="M-22.625 3.625V-0.75H-27V-5.125H-18.25V-0.75H-5.125V-9.5H-18.25V-13.875H-13.875V-18.25H-9.5V-22.625H-22.625V-27H3.625V-22.625H-0.749998V-18.25H-5.125V-13.875H-0.749998V-9.5H3.625V-0.75H-0.749998V3.625H-22.625Z" fill="black"/>
<path d="M-18.25 3.625V-9.5H-13.875V-13.875H-9.5V-18.25H-5.125V-22.625H-18.25V-18.25H-27V-27H3.625V-18.25H-0.749998V-13.875H-5.125V-9.5H-9.5V3.625H-18.25Z" fill="black"/>
<path d="M-18.25 3.625V-9.5H-13.875V-13.875H-9.5V-18.25H-5.125V-22.625H-18.25V-18.25H-27V-27H3.625V-18.25H-0.749998V-13.875H-5.125V-9.5H-9.5V3.625H-18.25Z" fill="black"/>
<path d="M-27 3.625V-5.125H-22.625V-9.5H-18.25V-13.875H-9.5V-18.25H-5.125V-22.625H-18.25V-18.25H-27V-22.625H-22.625V-27H-0.749998V-22.625H3.625V-13.875H-0.749998V-9.5H-5.125V-5.125H-13.875V-0.75H3.625V3.625H-27Z" fill="black"/>
<path d="M-22.625 3.625V-0.75H-13.875V-18.25H-18.25V-22.625H-13.875V-27H-5.125V-0.75H3.625V3.625H-22.625Z" fill="black"/>
<path d="M-22.625 3.625V-0.75H-13.875V-18.25H-18.25V-22.625H-13.875V-27H-5.125V-0.75H3.625V3.625H-22.625Z" fill="black"/>
</svg>
